<?xml version="1.0" encoding="UTF-8" standalone="no" ?>
<!DOCTYPE svg PUBLIC "-//W3C//DTD SVG 1.1//EN" "http://www.w3.org/Graphics/SVG/1.1/DTD/svg11.dtd">
<svg xmlns="http://www.w3.org/2000/svg" xmlns:xlink="http://www.w3.org/1999/xlink" version="1.1" width="40" height="40" viewBox="0 0 40 40" xml:space="preserve">
<desc>Created with Fabric.js 4.6.0</desc>
<defs>
</defs>
<g transform="matrix(1 0 0 1 530.98 198.94)" id="EvvnX2kQKOUpK8G0I6S_E"  >
<path style="stroke: rgb(255,243,18); stroke-width: 4; stroke-dasharray: none; stroke-linecap: round; stroke-dashoffset: 0; stroke-linejoin: round; stroke-miterlimit: 10; fill: none; fill-rule: nonzero; opacity: 1;" vector-effect="non-scaling-stroke"  transform=" translate(-530.98, -198.94)" d="M 530.9737347531462 198.93514036786064 L 530.9817347531463 198.93514036786064" stroke-linecap="round" />
</g>
<g transform="matrix(0.05 0 0 0.05 20 19)" id="6JvTxnPoJuZSf5uMW0Vgk"  >
<path style="stroke: none; stroke-width: 1; stroke-dasharray: none; stroke-linecap: butt; stroke-dashoffset: 0; stroke-linejoin: miter; stroke-miterlimit: 4; fill: rgb(0,0,0); fill-rule: nonzero; opacity: 1;" vector-effect="non-scaling-stroke"  transform=" translate(-480, -596)" d="M 323 851 L 480 757 L 637 852 L 595 674 L 733 554 L 551 538 L 480 370 L 409 537 L 227 553 L 365 673 L 323 851 Z M 233 976 L 298 695 L 80 506 L 368 481 L 480 216 L 592 481 L 880 506 L 662 695 L 727 976 L 480 827 L 233 976 Z M 480 621 Z" stroke-linecap="round" />
</g>
</svg>